<?xml version="1.0" encoding="UTF-8"?>
<svg width="64px" height="64px" viewBox="0 0 64 64" version="1.1" xmlns="http://www.w3.org/2000/svg">
    <circle fill="#4CAF50" cx="32" cy="32" r="32"/>
    <path fill="white" d="M32,16 C38.6274,16 44,21.3726 44,28 L44,36 L46,36 C47.1046,36 48,36.8954 48,38 L48,44 C48,45.1046 47.1046,46 46,46 L18,46 C16.8954,46 16,45.1046 16,44 L16,38 C16,36.8954 16.8954,36 18,36 L20,36 L20,28 C20,21.3726 25.3726,16 32,16 Z M32,18 C26.4772,18 22,22.4772 22,28 L22,36 L42,36 L42,28 C42,22.4772 37.5228,18 32,18 Z"/>
</svg>